<svg version="1" xmlns="http://www.w3.org/2000/svg" width="533.333" height="533.333" viewBox="0 0 400.000000 400.000000"><path d="M71.8 73.2l-.3 26.3-7.2.3-7.3.3v-4C57 90 55.3 89 45.4 89c-8.1 0-8.4.1-9 2.5-.9 3.7.4 12.7 2.5 16.5 3.1 5.9 6.7 7 22.8 7H76l-3.7 5.7c-5.1 8-12.7 24.4-15.7 33.8-5.6 17.8-6.1 21.4-6.1 46 0 21.9.2 23.5 2.9 34.3 1.5 6.2 2.6 11.5 2.5 11.7-.4.3-31.2 8.5-32.1 8.5-.3 0-2-4.1-3.8-9-1.8-5-3.5-8.9-3.7-8.6-.2.2.7 4.3 2.1 9 1.4 4.8 2.3 9.3 1.9 10.1-.3.9.1 1.5.9 1.5 1.2 0 25.9-5.5 33.8-7.5 2.4-.6 2.8-.1 6.3 8.2 19.8 46.7 63.8 81.5 113.5 89.8 15.8 2.7 45.9 1.7 60.2-1.9 27.6-7 50.3-19.9 70.6-40.1 26.8-26.8 42.3-61.3 44.1-98.2l.6-13.3 3.1-.5c1.7-.3 9.9-1.7 18.1-3 8.3-1.4 15.7-2.6 16.5-2.8 1.1-.3 1.5-1.9 1.6-6.3.1-3.2 0-4.6-.2-2.9-1 7.3-1.1 7.5-5.7 7.5-3.2 0-3.8.3-2.7 1.1 1.1.7.1.8-3.5.4-3.8-.4-4.5-.3-3 .5 1.5.7.4.9-4 .5s-5.6-.3-4.5.5c1.1.8-.2.9-5 .6-4.5-.4-5.6-.3-3.5.3 2.3.7 2.5.9.9 1-1.2 0-3.5-.2-5.2-.5-2.9-.6-3-.7-4.1-9.4-2.8-22-9.9-41.5-23-63.3-1.9-3.1-2-3.7-.7-3.7 2.6 0 3.6-3.5 3.6-12.4V94h2.8c2.6 0 3.1.7 7.2 10.5l4.4 10.5h9c5 0 9.7-.4 10.5-.9 1.2-.8.6-2.7-3.2-11.1L355 92.9l3.9-3.7c5.1-4.8 6.5-10 5.9-21.7-.7-12.3-3.2-16.8-10.7-19.4-2.1-.7-11.3-1.1-24.2-1.1H309v49.2l-4.7-4.2c-2.7-2.3-7.6-6.5-11.1-9.3l-6.3-5.1-4.5-14c-2.4-7.7-4.9-14.6-5.5-15.3-.8-.9-4.2-1.3-11.9-1.3h-10.7l-1.8 5.9-1.8 5.9-5.2-1.8c-2.9-1-7.7-2.3-10.7-3-4.6-1-5.6-1.7-6.5-4.1l-1.1-2.9h-23.7c-22.7 0-23.7.1-24.2 2-.6 2.2-1 2.3-10.6 4-6.8 1.2-6.9 1.2-9.6-1.4-4.1-3.9-7.9-4.6-25.7-4.6-15.1 0-16.3.1-19.5 2.3-5.2 3.5-6.9 7.8-6.9 17.9 0 4.8.4 9.8.9 11.2.8 2 .6 2.7-1.3 4-1.3.8-5.1 4-8.5 7.2L92 95.2V73c0-13.3-.4-22.9-1-24.1-.9-1.7-2.2-1.9-10-1.9h-9l-.2 26.2zm2.4-6c-.4 31.5-.8 34-1 6.5-.1-14.1.1-25.7.6-25.7.4 0 .6 8.7.4 19.2zM183 48.9c0 .6-.4 1.3-1 1.6-.5.3-1-.1-1-.9 0-.9.5-1.6 1-1.6.6 0 1 .4 1 .9zm74 0c0 .6-.4 1.3-1 1.6-.5.3-1-.1-1-.9 0-.9.5-1.6 1-1.6.6 0 1 .4 1 .9zm54.2 23.3c-.1 13.4-.3 28.1-.5 32.8-.2 4.7-.4-6.2-.5-24.3-.1-18 .1-32.7.6-32.7.4 0 .6 10.9.4 24.2zM118.6 50c-3.9 1.2-7.3 4.6-8.7 8.7-.6 1.9-1.3 3.2-1.5 3-.3-.3.3-2.3 1.2-4.6 1.9-4.9 5.7-8.1 9.3-8l2.6.1-2.9.8zM87 76.3c0 12.8-.4 24.7-1 26.6-1.1 3.9-4.8 8.3-6.2 7.5-.5-.4 0-1.6 1.1-2.8 1.1-1.2 2.4-3.6 2.7-5.4.6-3.1.6-3.2-3-3.2H77V53.1l4.3-.3c2.3-.2 4.5-.2 5 0 .4.2.7 10.8.7 23.5zM224 56c0 1.6-.7 3-1.6 3.4-.9.3-7.4.6-14.5.6H195l-.6 2.6c-.4 1.4-.4 6-.2 10.1.7 10.1 1.2 10.5 14.6 10.1l10.2-.3V89.2l-12-.4c-14-.4-13-1.4-13 13.4 0 5.4-.4 10-1 10.3-.6.4-1-2-1-6.4V99h-7V53l18.8-.2c10.3-.2 19-.2 19.5 0 .4.2.7 1.6.7 3.2zm59.5 26.3c5.2 16 9.1 29.5 8.6 30-.4.4-1.9-2.2-3.2-6-2.3-6.6-2.5-6.8-6.1-7.1-2.1-.2-3.8-.7-3.8-1.3 0-.5-5.2-.9-11.9-.9-13.7 0-14 .1-16.6 8.2-1 2.9-2.3 5.9-3.1 6.7-1 1.2-1 .3.1-4.5 1.9-7.8 1.8-8.4-.5-8.4-2.5 0-2.6.3 4.7-23 3.1-9.6 5.9-18.6 6.2-20 .7-2.3 1.3-2.5 7.7-3 3.8-.3 7.2-.4 7.6-.2.4.2 5 13.4 10.3 29.5zm-130-27.9c4.1 1.8 5.7 4.5 5.3 9.4-.3 3.6-.4 3.7-4.8 3.8l-4.5.2 4-.8 4-.7-4.1-.2c-3.7-.1-4.3-.4-4.9-2.8-1.2-5-2.1-5.3-12.4-5.1l-9.6.2 7.5.6 7.5.6-9.1.2c-10.4.2-10.4.3-10.4 8.1 0 6.5 1.7 11 4.3 11.6 1.2.2 8 .6 15 .7 12.7.3 12.9.3 15.3 3.1 2.1 2.5 2.4 3.8 2.4 10.9 0 6.9-.4 8.8-2.5 12.5-1.4 2.3-2.9 4.3-3.4 4.3-2 0-1.8-1.5.4-4.2 1.4-1.6 2.5-4 2.5-5.4 0-2-.5-2.4-3-2.4-2.6 0-3-.4-3-2.8 0-7.4-3.1-12.3-7.7-12.1-1.4 0-1.5.2-.3.6 1.8.7 3.9 3.4 3.9 4.8 0 .5-.4.2-1-.8-.9-1.5-2.6-1.7-12.7-1.7-10-.1-11.4-.3-9.9-1.4 1.6-1.2 1.5-1.4-1.6-2-5.4-1-7.4-4-8-12.1-.8-8.7.7-13.2 5.2-16.2 3.1-2.1 4.5-2.3 17.8-2.3 10.1 0 15.4.4 17.8 1.4zm200.9 0c4.6 1.9 5.9 6.3 5.4 18-.4 10.2-2.1 14.1-7 17.1-3.5 2-3.4 3.4 1.3 13.4 4.3 9.3 3.6 12.1-.8 3.4-3.4-6.7-3.9-7.2-7.2-7.5-3-.3-3.8-.9-5.8-5.1l-2.4-4.7-5.7.1c-4.9.1-5.3.3-2.7 1 2.9.8 2.9.8-.7.6-2.4-.2-3.9.2-4.3 1.1-.3.7-.5 5.6-.5 10.7 0 7.3-.3 9.4-1.5 9.9-.8.3-1.4.2-1.4-.2.1-.4.1-3.5 0-7L321 99h-7V53h18.5c13.7 0 19.5.4 21.9 1.4zM146 62.3c0 .4-.6.2-1.4-.5-.8-.7-1.2-1.7-.9-2.2.5-.8 2.3 1.2 2.3 2.7zM134 65c-3 1.6-5.8 2.9-6.2 3-.5 0-.8-1.4-.8-3v-3h6.3l6.2.1L134 65zm89.5.6c12 1.9 22.5 5 22.4 6.7 0 .7-.7 2.8-1.5 4.7-1.1 2.6-1.3 2.8-.9.9.5-2.9-.4-3.3-10.5-4.4-2.5-.3-6.1-.8-8-1.1-1.9-.3-8-.8-13.5-1.1-5.5-.3-10.1-.6-10.2-.7 0 0-.4-1.8-.7-3.8l-.6-3.7 6.8.5c3.7.3 11.2 1.2 16.7 2zm-44.6 4.1c-.1 3.2-.4 4.6-.6 3.1-.4-2.4-.7-2.7-2.4-1.8-1.1.6-2.4.8-2.9.5-1.3-.8-5 1.3-5 2.8 0 .8-1.7 2.1-3.7 3.1-3.6 1.7-3.7 1.7-5.2-.2-2.3-2.9-5.4-4.2-10.3-4.3-3.9 0-4.1-.1-1.8-1.1 1.4-.5 5.2-1.1 8.5-1.3 4.7-.2 6.3-.7 7.7-2.5 1-1.2 1.8-2 1.8-1.8 0 .4 12.6-1.6 13.8-2.1.1 0 .1 2.5.1 5.6zm-59.9 16c0 1.1-.5 1.1-2 .3-1.1-.6-2-1.2-2-1.3 0-.2.9-.3 2-.3s2 .6 2 1.3zm121.4 11.7c-1.5 4.7-3 8.4-3.2 8.1-.2-.2.9-4.2 2.4-8.9s3-8.4 3.2-8.1c.2.2-.9 4.2-2.4 8.9zm-122-6.9c1.9 1.4 1.7 1.5-1.8 1.5-3.3 0-3.7-.2-2.6-1.5 1.5-1.8 2-1.8 4.4 0zm25.6 3.6c0 5.8-1.6 6.3-4 1.2-1.2-2.5-2.2-3.2-4.9-3.5-1.9-.2-3.6-.9-3.9-1.6-.3-.9 1.4-1.2 6.2-1.2h6.6v5.1zM39.1 96.8c-.4 8-1.1 7.9-1.1-.3 0-3.8.3-6.5.7-6.2.4.4.5 3.3.4 6.5zM335.5 91c.3.5-.1 1-.9 1-.9 0-1.6-.5-1.6-1 0-.6.4-1 .9-1 .6 0 1.3.4 1.6 1zm-124.2 4.1c16.3 4 24.7 6.9 24.7 8.4 0 2-.9 1.9-10.4-1-4.4-1.4-12.1-3.5-17-4.7-4.9-1.3-9.1-2.9-9.4-3.6-.5-1.7 2.7-1.5 12.1.9zM110 94.4c0 .3-.4.8-1 1.1-.5.3-1 .1-1-.4 0-.6.5-1.1 1-1.1.6 0 1 .2 1 .4zM52 98c0 1.6 0 3.3.1 3.7.2 1.8-2 1.2-2.6-.6C49 99.5 48 99 45.4 99c-5.2 0-4.5-2.8.9-3.3 2.3-.2 4.5-.4 5-.5.4-.1.7 1.1.7 2.8zm56.2 9c.3.8.3 1.2.1.9-.7-1.1-5.3 1.5-5.9 3.3-.3 1-1.1 1.7-1.7 1.5-.7-.1-1.1.3-1 1 .1.6-.4 1.4-1.2 1.7-.8.3-1.5 0-1.5-.6 0-1.1-1.4-.2-1.6 1 0 .7-1.5 4.1-3.6 8.7-1.6 3.6 5 25.9 13.4 45.2l4 9.3h4c2.2 0 4.7.4 5.7 1 1.4.7 2.7 0 6.2-3.6 2.4-2.5 7.8-7.4 12-10.9 7.1-6 7.5-6.5 7.1-9.9-.3-2.8.1-4 2.2-6.1 2.6-2.6 2.6-2.8 2.6-17.2v-14.6l2 2.6c1.7 2.2 2 4 2 14v11.6l3.1 1.5c2.9 1.5 3.2 1.4 12.7-3.9 14.3-8 32.5-15.3 51.8-20.9 4.9-1.4 5.1-1.3 4.7.4-.6 2.1-10 5.4-12.6 4.4-.8-.3-2.1.1-2.9 1-.8.8-6.5 3.5-12.6 6-12.6 5.1-16.2 6.9-27.8 13.3-7.4 4.1-8 4.7-7.6 7.2.4 3-3.8 9.1-6.4 9.1-.8 0-1.4.4-1.4 1 0 .5-.7 1-1.5 1s-1.5-.3-1.5-.8c0-.4-.9-1.3-2.1-2-1.8-1.2-2.7-.8-8.7 4.1-3.7 3-8.9 7.5-11.7 10l-4.9 4.4 1.9 4.3c2.3 5.1 2.3 10.1 0 13.6-2.2 3.3-1.6 4.6 6.4 14.7 5 6.3 5.8 7.7 4.1 7.7-1.3 0-4-2.8-8.2-8.4-5.2-7.1-6.6-8.4-8.3-7.8-2.5.9-10.4.8-13.1-.2-1.7-.6-2.5 0-4.8 3.4-1.9 2.9-3.1 3.9-3.8 3.2-.7-.7-.1-2.4 1.9-5.4l2.9-4.3-1.8-3.5c-1-1.9-1.8-4.5-1.8-5.8 0-3.5 2.5-8.8 5.2-10.8l2.4-1.8-4.7-10.5c-6.2-13.9-11.1-28.3-13.9-40.4-1.8-8.2-2-10-.8-11.4 1.1-1.4 1.4-1.1 2.4 2.3l1.1 3.9 1.2-4c1.8-5.5 6.6-14.1 11-19.5l3.6-4.5.6 4.5c.3 2.5.8 5.2 1.1 6zm14.2-7.4c.3.9.6 2.3.6 3.1 0 1.3-.3 1.3-1.5.3-1.6-1.3-2.1-5-.6-5 .5 0 1.2.7 1.5 1.6zm145.9-.9c-2.3.2-6.4.2-9 0-2.6-.2-.7-.3 4.2-.3 5 0 7.1.1 4.8.3zm7.2.3c.3.5-.1 1-1 1s-1.3-.5-1-1c.3-.6.8-1 1-1 .2 0 .7.4 1 1zM73 101c0 .5-.5 1-1.1 1-.5 0-.7-.5-.4-1 .3-.6.8-1 1.1-1 .2 0 .4.4.4 1zm162.2 12.2c-.8.8-.9.4-.5-1.3.4-1.3.8-1.8 1.1-1 .2.7-.1 1.8-.6 2.3zm35.6.3c1.2-.4 1.3-.3.2 1-1.7 2.1-3 1.9-6.5-1.1l-3-2.5 3.9 1.6c2.2.8 4.6 1.3 5.4 1zm-150.1-.9c-.3.3-1.2.4-1.9.1-.8-.3-.5-.6.6-.6 1.1-.1 1.7.2 1.3.5zm126.6 5.6c-1.8 1.8-3.5 2.9-3.8 2.6-.9-.8 3.8-5.8 5.5-5.8.9 0 .3 1.2-1.7 3.2zm3.7 10c-.1.7-1 .2-2-1.1-2.6-3-2.6-4.7 0-2.1 1.1 1.1 2 2.6 2 3.2zm6-2.8c0 .2-.9.6-2 .9-1.1.3-1.8.1-1.4-.4.5-.9 3.4-1.3 3.4-.5zm-101.2 50.2c.7 4.7 2.8 14.7 4.7 22.2 2.2 8.7 3.1 14 2.5 14.6-1.3 1.3-1.4 1.2-4.4-9.4-4.3-15.6-7.7-34.3-6.3-35.2 2.1-1.3 2.3-1 3.5 7.8zm196 17.1c-1 .2-2.6.2-3.5 0-1-.3-.2-.5 1.7-.5s2.7.2 1.8.5zM312 197c-1.4.4-3.4.8-4.5.8l-2 .1 2-.9c1.1-.5 3.1-.8 4.5-.8h2.5l-2.5.8zm-8.9 5.9c2.1 2.2 2.9 3.9 2.9 6.6 0 9.2-12.9 12.1-15.8 3.5-1.3-3.6-.6-4.1.8-.5 1.8 4.7 8.6 5.8 12.4 1.9 2.1-2.1 2-7.7-.2-10.4-.9-1.2-3.3-2.5-5.2-3-3.3-.7-3.3-.8-.7-.9 1.9-.1 3.8.9 5.8 2.8zm-10.8.5c-1 1.3-2 2.2-2.2 2-.4-.4 2.9-4.4 3.6-4.4.2 0-.4 1.1-1.4 2.4zm-52 .3c-.7.2-1.9.2-2.5 0-.7-.3-.2-.5 1.2-.5s1.9.2 1.3.5zm-12.5 1c-1.6.2-4 .2-5.5 0-1.6-.2-.3-.4 2.7-.4s4.3.2 2.8.4zm24 4.9c1.5 1.8 2.2 3.6 2 6.2l-.1 3.7-.4-3.5c-.5-4-1.6-5.6-5.8-8.2-2.8-1.8-2.8-1.9-.5-1.3 1.4.4 3.5 1.8 4.8 3.1zm-8.9-2.3c-.2.1-1.3.9-2.4 1.7-1.9 1.4-1.9 1.4-.6-.3.7-.9 1.8-1.7 2.4-1.7.6 0 .8.1.6.3zm-2.2 14.4c2.3 1.8 7.4 1.6 10.3-.3l2.5-1.7-2 2.1c-1.1 1.1-3.5 2.3-5.2 2.7-2.8.6-3.8.2-6.3-2.3-2.2-2.3-3-3.9-2.9-6.4l.1-3.3.9 4c.5 2.2 1.7 4.6 2.6 5.2zM97 215.5c0 .3-1.4 3-3.1 6.1-2.1 3.6-3.5 5.2-4.1 4.6-1.3-1.3 4-11.2 5.9-11.2.7 0 1.3.2 1.3.5zm114.3 2.2c-.7.2-1.9.2-2.5 0-.7-.3-.2-.5 1.2-.5s1.9.2 1.3.5zm126.1 4.5c-.3 1.8-1 4.8-1.6 6.6-1.4 4.7-14.3 21.6-23.5 30.9-7.9 8-22.7 20.3-24.4 20.3-.5 0-.9-1-.9-2.3 0-1.6 1.9-3.6 6.8-7.2 15.3-11.3 30.4-28.2 39.5-44.2 2.3-4 4.3-7.3 4.4-7.3.1 0 0 1.5-.3 3.2zM182 226.9c0 .6-.4 1.3-1 1.6-.5.3-1-.1-1-.9 0-.9.5-1.6 1-1.6.6 0 1 .4 1 .9zm-51.6 2.3c-1.2.5-2.7 2-3.2 3.2-.8 1.6-1.1 1.7-1.1.4-.1-1.7 3.5-4.9 5.4-4.7.5 0 0 .5-1.1 1.1zm9.5 1.4c1.2 1.5 2.1 3.4 2.1 4.3-.1.9-.6.3-1.3-1.2-.7-1.6-2.3-3.5-3.7-4.2-1.8-1-2-1.4-.8-1.5.9 0 2.6 1.2 3.7 2.6zm11.5 5.2c3.9 3.7 8.8 8.2 11 10 2.7 2.4 3.5 3.7 2.8 4.4-.8.8-2.8-.4-7.1-4.1-6.7-5.8-15.1-14.8-15.1-16.2 0-1.8 1.5-.8 8.4 5.9zm63.1-1.8c.3.5-.1 1-1 1s-1.3-.5-1-1c.3-.6.8-1 1-1 .2 0 .7.4 1 1zm-88.8 3.2c-.3.8-.6.5-.6-.6-.1-1.1.2-1.7.5-1.3.3.3.4 1.2.1 1.9zM141 242c-1.2 2.2-4.8 4-8.1 4-2.3 0-6.9-4.2-6.8-6.2 0-.7.5-.3 1.1.9.6 1.2 2.3 2.7 3.8 3.3 3.5 1.5 8-.3 9.5-3.8.5-1.2 1.1-1.8 1.3-1.3.2.6-.2 1.9-.8 3.1zm-45.2.6c4.7 5.4 1.4 14.4-5.4 14.4-2 0-4.4-.4-5.4-1-2-1-4.4-7.2-3.7-9.3.2-.6.7.5 1.1 2.5 1.2 6.4 7.9 9 12.4 4.8 2.5-2.3 2.9-7.5.9-10.1-3.3-4.3-8-4.6-11.7-.6-1.1 1.1-2 1.6-2 1 0-1.2 2.8-3.8 5-4.6 2.6-1 6.4.3 8.8 2.9zm237.2-1.2c0 3.7-26.3 35.6-29.3 35.6-.7 0-3.1 1.9-5.3 4.3-4.8 5.1-21.1 16.4-22.1 15.3-.9-.9 4.9-6.2 17.3-15.6 10.6-8.1 28.1-25.8 34.4-34.8 2.4-3.4 4.5-6.2 4.7-6.2.2 0 .3.6.3 1.4zM193.7 262c2.8 7.2 4.8 8.6 13 9.5 9.4.9 17 2.8 23.1 5.6l5.1 2.3-.5 4.6c-.7 6.4-1.4 9.3-2 8.7-.3-.3-3.1.9-6.2 2.7-6.2 3.4-16.1 6.3-18.6 5.3-1.5-.6-1.5-.4-.1 2.3.8 1.6 1.9 3.1 2.5 3.5.9.6 16.3-3.3 24.2-6.1 3.5-1.2 3.8-1.2 3.8.6 0 1 .3 2.5.6 3.3.6 1.8-11.9 6.2-29.8 10.6-10.4 2.6-14.5 4.8-12.5 6.7.9.9 17.8-3 31.6-7.4 11.1-3.6 11.3-3.6 12.7-1.7 1.9 2.6.9 3.4-10.6 7.5-5 1.8-9 3.5-9 3.8 0 .3 1.8 2.9 4 5.8s4 5.8 4 6.4c0 2.4-2.1.6-6.5-5.4l-4.8-6.4-4.6 1.4c-7.1 2.2-26.7 7.1-35.9 8.9l-8.3 1.7-9.2-2.7c-11.6-3.2-31.9-12.9-31.1-14.8.4-1 4.2-1.6 14.9-2 15.9-.8 32.1-2.7 49.1-5.8 13.9-2.6 14.3-2.8 11.6-6.6-1.7-2.4-2.9-3-6.4-3.2-5.2-.2-6.6-.5-9.8-1.8-1.4-.6-4.2-1.6-6.2-2.4-6.9-2.4-11.8-8.5-11.1-13.9.6-4.6.4-9-.5-10.8-1.4-2.6-2.4-9.1-1.7-11.2.5-1.6 1-1.7 3.1-1 4.5 1.7 9.7 1.2 13.4-1.5 1.9-1.3 4.2-2.3 5-2.2.8.1 2.5 2.7 3.7 5.7zm92.2 37.6c1.6.3 3.2 1.2 3.5 2.1.4 1.1.2 1.4-.9.9-.8-.3-3.7-.8-6.5-1.2-3.4-.4-5-1.1-5-2.1 0-1.1.8-1.3 3-.9 1.7.3 4.3.9 5.9 1.2z"/><path d="M203.8 58.7c3.4.2 8.8.2 12 0 3.1-.2.3-.3-6.3-.3s-9.2.1-5.7.3zM202.8 87.7c2.9.2 7.4.2 10 0 2.6-.2.2-.3-5.3-.3s-7.6.1-4.7.3zM263.1 65.8c-3.1 6.2-6.1 17.7-5.8 22.3l.2 4.4h8.5c8.1 0 8.5-.1 8.8-2.3.5-3.2-6.8-27-8.4-27.6-.9-.3-2.1.9-3.3 3.2zm4.9 15.3c0 1.4-1.6 1.1-2.9-.5-1-1.2-.8-1.3.8-.9 1.2.3 2.1.9 2.1 1.4zM335 59l7.5.6-9.4.2-9.3.2.4 11.5c.2 8.9.7 11.8 1.8 12.6.8.5 6.1.8 11.8.7 7.8-.2 10.5-.7 11.3-1.8.6-.9.8-6 .7-11.9-.4-13-.6-13.2-13.2-12.9l-9.1.2 7.5.6zm11.3 2.1c.4 1.6.3 1.8-.9.8-1.6-1.3-1.9-2.9-.5-2.9.5 0 1.1.9 1.4 2.1zm-1.8 8.9v7.5l-7.7.3-7.8.3V61.9l7.8.3 7.7.3V70zm2.2 4.2c-.2 1.8-.4.4-.4-3.2s.2-5 .4-3.3c.2 1.8.2 4.8 0 6.5zM346 79c0 .5-.5 1-1.1 1-.5 0-.7-.5-.4-1 .3-.6.8-1 1.1-1 .2 0 .4.4.4 1z"/></svg>