<svg version="1" xmlns="http://www.w3.org/2000/svg" width="901.333" height="901.333" viewBox="0 0 676.000000 676.000000"><path d="M318 .6c-83.3 6-156.8 38.6-215.4 95.4-55.2 53.5-89.4 122.1-99.7 200-3.2 23.5-3.2 60.5 0 84 10.3 77.9 44.5 146.5 99.7 200 53.5 51.9 118.2 83.1 193.4 93.1 23.5 3.2 60.5 3.2 84 0 18.5-2.4 42.4-7.6 57.5-12.2 106.7-33.2 190.2-116.7 223.4-223.4 4.6-15.1 9.8-39 12.2-57.5 3.2-23.5 3.2-60.5 0-84-7.9-59-28.4-110.7-62.6-157.5-14.1-19.4-36.3-43.5-51.7-56.3-4.3-3.5-7.8-6.7-7.8-7 0-.4.5-2.3 1-4.2 1.3-4.6 1.4-22 .1-23.3-.6-.6-2.6 1.3-5.8 5.8-2.6 3.7-5.8 7.9-6.9 9.3l-2.2 2.6-5.3-4.1c-5.8-4.4-19.4-13.3-20.3-13.3-.4 0-2.3-1.1-4.4-2.3-25.5-16-70.3-33-103.2-39.2-24.6-4.6-65.2-7.4-86-5.9zm232.7 60.7c-1.1 15.2-4.8 21.4-28 46.9-13.8 15-17.2 17.7-36.9 28.9-9.3 5.1-16.6 9.8-16.4 10.4.6 1.5 1.4 1.2 20.3-9.4 9.8-5.4 23-12 29.3-14.6 10.4-4.3 12.1-5.4 17.9-11.4l6.3-6.6-.5 6.7c-.4 3.7-1.6 8.8-2.9 11.5-3.7 8-17.8 20.6-29.6 26.7-1.9 1-9.3 3.8-16.5 6.2-17 5.8-24.7 9.3-24.7 11.1 0 .9.6 1.3 1.3 1 .6-.3 5-2.1 9.7-4 4.7-2 11.7-4.1 15.5-4.7 18.3-3.1 27.9-6.5 38.7-13.7 3.8-2.5 7.1-4.3 7.4-4 1 1-3.5 8.3-7.7 12.5-9.3 9.2-27.6 17.6-50 23-6.8 1.7-14.1 3.3-16.1 3.7-3.6.5-4.6 1.4-3.3 2.7.8.8 21.4-3.7 31.5-6.8 4.7-1.4 12.4-3.4 17.2-4.4 4.7-1 9.6-2.1 10.8-2.5 2.1-.7 2.1-.6.6 2.4-2.7 5.1-10.9 12.5-18.2 16.3-8.5 4.5-17.1 7.2-28.9 9.3-17.8 3.1-19.5 3.6-19.5 5.2 0 1.1.7 1.3 2.8.9 1.5-.3 11-1.9 21.2-3.6 10.2-1.6 21.2-3.9 24.5-5 3.2-1.1 6-1.8 6.2-1.6.3.2-2 2.9-5 5.9-13.4 13.3-34.1 21-60.7 22.5-9.3.5-12.5 1.1-12.8 2.1-1.1 3.4 40-1.2 58.1-6.5 5.6-1.7-8.6 13.8-17.3 18.9-10.7 6.2-25.9 10.2-43.4 11.5-6.5.5-10.1 1.1-10.4 1.9-.5 1.6 5.4 1.7 23.7.3 7.4-.6 13.6-.9 13.8-.7.7.8-19.4 13.7-23.7 15.2-3.5 1.2-6.7 1.4-15.6.9-7.5-.5-11.3-.3-11.8.4-.3.6-.2 1.3.3 1.7.6.3 9.2.6 19.3.6h18.3l-2.5 2.1c-7.5 6.3-23.7 10.3-38.2 9.4-7-.4-8.8-.2-8.8.9 0 .9 2.3 1.7 6.8 2.5 3.7.6 8.7 1.5 11.2 1.9l4.5.8-4 1.7c-2.5 1.2-7.6 2-13.7 2.3-6.9.4-9.8.9-9.8 1.8 0 1.3 2.7 1.8 14.8 3.1 3.4.4 6.2 1 6.2 1.4 0 1.3-7 7-9.9 8.2-1.4.5-5.3 1.4-8.5 1.8-5.8.9-10.5 3.3-11.4 5.8-.6 1.8 1.7 1.4 4.5-.8 1.9-1.5 4.1-2 8.2-2 8.4 0 9.4 1.2 4.8 5.6-3.8 3.5-3.9 3.5-10.5 2.9-7.4-.7-14.3.4-15 2.3-.3 1 .7 1.1 4 .5 5.7-1 11.2-.8 14.9.7 3.4 1.4 3.6 2.1 1.2 4.2-4.3 3.8-8.9 5.2-18.3 5.8-10.9.6-12.3 2.2-2.6 3 7.2.6 8 1 7.2 3.7-.9 2.7-5.7 5.2-13.2 6.8-3.6.7-6.9 1.6-7.2 1.9-1.3 1.4.9 1.7 5.7.8 2.8-.5 5.4-.6 5.6-.2.3.4-1.9 3-4.8 5.7-4.5 4.2-6.4 5.3-13.3 7.1-10.4 2.8-12.8 2.8-15.7-.4-2-2.2-2.4-3.3-2-7.2.4-4 1.1-5.3 5-8.7 3.6-3.3 4.5-4.9 5-8.4s.3-4.3-.8-3.9c-.8.3-1.6 1.3-1.8 2.4-.7 4.3-5.3 8.4-13.9 12.6-4.8 2.3-11.5 6.1-15 8.5-6.7 4.5-11.1 5.4-16.8 3.3-3.4-1.3-4.7-.1-3.8 3.4 1 4.2 5 5.6 16.1 5.6h9.8l2.8-3.5c3-3.7 5.7-4.4 7.7-2 .7.8 3.5 2.2 6.2 3 2.7.8 6.1 2.3 7.6 3.3 2.1 1.5 3.8 1.9 7.7 1.5 4.1-.4 5.6-.1 8.4 1.9 3.8 2.6 6.9 7.9 8.7 14.7 1 4.1 3.6 7.3 4.8 6.1.2-.3-.1-6.8-.7-14.4l-1.1-13.8 2.8-5.3c1.5-2.9 4.3-7.1 6.2-9.3 3.1-3.7 4-4.1 9.7-4.7 5-.5 7.3-.3 11.8 1.4 8.7 3.3 22.8 13.2 34.1 23.9 8.7 8.3 17 14.2 53.4 38.5 39.9 26.6 57.8 39.8 60.4 44.8 1.1 1.9 1 1.9-2.2.6-6.9-3-38.3-16.9-39.3-17.5-.5-.2 2.6 2.8 7 6.8 10.3 9.4 26.5 26 26.5 27.1 0 .5-.5.9-1 .9-1.7 0-20.2-9.6-31.1-16-5.5-3.3-9.6-5.4-9.2-4.7.4.7 3.1 4.3 6 8.1 3 3.8 6.9 9.7 8.9 13.1 6.3 11.4 10.7 24.5 8.2 24.5-.6 0-8.7-7.8-18-17.3l-16.9-17.2 6 12.5c6.8 14.2 11.7 28.3 12.6 36.2l.7 5.3-11.4-17c-6.2-9.4-14-21.1-17.2-26-3.2-5-5.5-8.1-5.1-7 .4 1.1 2.5 6.9 4.7 13 7 19.4 11.6 41.3 9 42.9-1.1.6-9.3-11.7-23.2-34.7-4.6-7.5-8.5-13.6-8.6-13.4-.2.1.5 3.4 1.5 7.2 2.3 8.8 3.5 22.7 2.6 30.1-.4 3-.8 5.4-1.1 5.2-.2-.3-2.2-6.9-4.4-14.8-10.8-38.2-22-59.2-39.2-73.5-4.3-3.6-7.8-13.6-7.8-22.1 0-7.3 2.4-8.9 13-8.9 12.4.1 29.2 6.4 50 18.8l9.5 5.7-6-5.6c-8.2-7.5-24.2-20-34.5-26.9-7.2-4.8-21.5-12.5-23.2-12.5-.3 0-.9 1.6-1.3 3.6-.8 4.8-2.5 8.2-4.1 8.8-.8.3-2.9-.7-4.7-2.3-4.6-4.1-9.1-6.1-13.2-6.1-3.6 0-10.5 2.6-10.5 3.9 0 .3 1.6 1.9 3.5 3.4 3.8 3 9.5 12 9.5 15 0 1.4-.5 1.7-2.1 1.2-4.2-1.4-17-.3-16.8 1.3 0 .4 3.7 3.8 8.1 7.7 9.3 8 11.8 11.5 11.8 16.7 0 4.4-.3 4.5-3.8 1.7-3.5-2.7-4.2-.6-.9 2.9 7.5 8.1 11.7 18.9 11.7 30 0 7.3-.1 7.5-3.7 10.9-7.1 6.5-18.5 10.3-21.7 7.3-.5-.5-1.2-8.1-1.5-16.8l-.6-15.9-5.3-10.7c-4.2-8.4-6.7-12-12.2-17.5-10.5-10.5-26.3-20.5-35.9-22.6-3.4-.7-3.4-.7-1.7 1.6 2.1 3.1 2 5.5-.4 7.9-2.3 2.3-2.4 2.2 7.9 6.4 6.9 2.8 8.1 3.8 8.1 7.3 0 3.1-2.1 3-11-.7-17.5-7.2-31.9-10-55.6-10.7l-18-.6-3.8 3.3c-3.2 2.9-4.4 3.3-8.7 3.2-2.7 0-5.3-.3-5.8-.6s-1.1-2.9-1.3-5.7c-.9-8.7-6.4-13.9-17.2-15.9-5-.9-6.9-.9-8.7 0-3 1.6-6.8 5-8 7.2-.8 1.5-.5 1.5 3.3-.2 6.3-2.9 12.9-2.6 16.1.6 3.1 3 5.2 11.7 4.2 17.3-1 6.2-11.2 15.1-17.5 15.1-3.5.1-3.5.1 1.5 1.8 3.7 1.3 5.2 2.4 5.9 4.3.8 2.4.3 3.2-6 9.1l-6.8 6.5-3.6-1.4c-1.9-.8-5.8-3.2-8.5-5.3-8.9-6.8-14.4-7.5-20.5-2.3-3.4 2.8-7 9.1-7 12.2 0 1.2-1.2 2.6-2.9 3.6-7.3 3.7-9 10.7-4.6 18.9 2.8 5.3 2.6 5.5-6.7 3.5-15-3.2-20.7-11.3-17.8-25.3.6-3.1 2.6-7.8 4.4-10.5 2.8-4.1 3.4-6 4-13.2.8-10.1 2.9-18.6 6.1-24.8 1.3-2.5 8.6-12.4 16.3-22 7.7-9.6 15.7-20.7 17.8-24.7 2.2-4 4-7.1 4.1-7 .2.1.7 2.6 1.3 5.6 1 5 .8 6.7-1.6 20.2-1 5.6.9 4.6 3.5-1.7 2.7-6.5 3.5-7 31.7-24.3 31.1-18.9 51.1-33 59.6-41.8 9.4-10 17.3-25.6 25.3-49.9 10.1-30.8 14.8-37.3 44.3-61.3 16-13 16.3-13.2 21.2-13.2 2.7 0 5 .1 5 .3 0 .2-2.2 2.6-4.9 5.4-12.5 13-21.4 30.6-36.4 72.8-17.8 50-26.5 66.6-42.5 81.6-8 7.5-8.4 9.3-.6 3 5.9-4.7 10.7-10.4 16.7-19.7 8.7-13.5 14.5-26.7 27.4-62.9 10.4-29.2 17.5-45.9 23.9-56.7 5.7-9.6 18.7-23.8 21.7-23.8s1.4-1.1-2.3-1.5c-3.1-.4-6-2-6-3.4 0-.4 6.3-5.8 14-11.9l14-11.2v11.3c0 12.9-.5 14-7.6 15.5-2.8.6 2.4 1 18.1 1.4 12.1.3 23 .2 24.2-.3 2.8-1 2.8-.6.2 4-3.8 6.8-5.9 7.6-20.1 7.9-8.2.2-12.8.7-12.8 1.4s5.3.9 16.7.6l16.7-.5-2.9 2.3c-1.7 1.3-6.5 4.2-10.7 6.4-4.2 2.2-9 5.2-10.7 6.5-2.6 2.3-3.7 2.5-12.5 2.5-6.6 0-9.6.4-9.6 1.2 0 .8 3.2.9 11.8.5 6.4-.4 12.8-1 14.2-1.3 2.4-.7 2.4-.5-.9 2.9-4.8 5.1-13 8.4-23.8 9.7-9.1 1-15.1 2.5-14 3.6.3.3 2.2.1 4.3-.5 2.2-.5 8.6-1.5 14.2-2.2 14-1.5 15-.3 4.3 5.1-5.3 2.6-8.5 4.9-9 6.3-.6 1.6-2.5 2.8-6.3 4-7.2 2.3-8.8 2.2-12.8-.8-4.2-3.1-5.5-2.2-1.7 1.1 3.6 3 9.5 3.2 17.4.4 10.4-3.6 10.8-2.4 2.1 6.6-8.5 8.9-11.6 10.6-19.1 10.8-3.4 0-7.3-.3-8.7-.8-2.2-.8-2.3-.7-1.1.8 1.5 1.8 11.8 2.2 18.6.6 2.2-.5 4.1-.7 4.3-.5.9.8-4 8.4-7.9 12.2-5 5-7.4 5.9-19.8 7.2-5.1.6-9.6 1.3-10 1.7-.9 1 16.7-.5 23.2-2 7.3-1.7 7.5-.5 1 6.3-5.4 5.5-9.5 7.1-18.8 7.1-3.3 0-6.7.4-7.4.9-1.3.9 14.1.6 20.7-.3 2.9-.4 2.8.3-.7 5-6.8 9.5-11.6 11.2-21.1 7.4-5.5-2.2-7-2.4-7-1.3 0 .5 3.4 1.9 7.5 3.2 4.1 1.4 7.5 3 7.5 3.7 0 .6-.8 2.2-1.8 3.4-1.8 2.3-1.9 2.3-6.7.7-2.7-1-6.2-1.7-7.9-1.6-3.5.1-3.4.1 4.7 2.4 3.1.8 5.7 2 5.7 2.6 0 1.5-9.9 5.8-15.3 6.5-2.6.4-5 1.1-5.3 1.5-.8 1.3 2.5 1.1 9.1-.6 8.3-2.2 15.7-7.3 18.3-12.7 1.4-2.7 3.4-5 5.7-6.2 5.1-2.8 12.5-13.3 11-15.7-.4-.5.4-1.8 1.7-2.8 3.2-2.6 8.5-12.4 7-12.9-.7-.2.2-2.1 2.3-4.6 4.6-5.6 7-11.3 5.5-13.1-.8-1-.4-1.8 2-3.5 4.2-3 11-11.7 11-14.1 0-1.4-.7-1.9-2.6-1.9-4.2 0-2.3-2 5.6-5.9 7.4-3.5 9.8-6.4 7-8.1-.9-.6-.6-1.1 1-2 4.1-2.2 10-8.2 10-10.2 0-1.7-.4-1.9-2.7-1.3-2.5.6-2.6.5-1.3-.8.8-.9 5.3-3.6 10-6.2 9.2-5 13-8 13-10.3 0-1-.8-1.2-3.1-.7l-3 .7 3.5-4.7c2-2.6 3.6-5.3 3.6-6 0-.8 1.8-3.4 3.9-5.9 2.2-2.5 4.8-6.9 5.9-9.8 3.7-9.9 4-28.8.3-22-1.3 2.5-9.8 8.4-18.8 13.2-3.5 1.8-6.3 3.7-6.3 4.1 0 .5.2.9.4.9 1.1 0 18.5-10.5 21.9-13.1l3.7-3v4.8c0 6.6-2.5 16-5.5 20.5-4.8 7.2-16.2 10.2-21.9 5.7l-2.6-2v-42.4l9.3-9.1c5-5 12.4-11.6 16.2-14.6 3.9-3.1 9.8-8.6 13.3-12.1l6.2-6.5v5.2c0 2.9-.5 6.7-1.1 8.5-.6 1.8-.8 3.5-.5 3.8 1.2 1.2 10.6-9 16.4-17.7 3.1-4.6 8.9-12.2 12.9-16.7 3.9-4.6 9.1-10.8 11.5-13.8l4.3-5.5.3 7.9c.3 9.2-1.6 18.9-5.3 26.1-1.6 3.1-6.6 8.9-13.5 15.6-10.5 10.2-12.2 12.4-10 12.4.5 0 8.3-6.8 17.2-15.2 30-27.9 48.2-46.2 52.8-53 2.5-3.7 4.9-6.8 5.4-6.8s.6 3.6.3 8.3zm-408 30.9c9 9.4 13.4 19.9 17.7 42.6 1.2 6.3 2.6 11.7 3.2 11.9 2.6.9 3.2-23.2 1-35.7-.8-4.1-1.7-8.7-2.1-10.3-1.2-4.5 1.2-3.2 5.1 2.9 5.2 8.1 8.1 16.6 12.9 37.7 2.3 10.3 4.6 19.1 5 19.5 1.1 1.1 3.1-2.4 5.6-10.1 2.5-7.4 3.2-18.7 1.7-25.5-1-4.3.4-3.4 3.8 2.4 4.4 7.4 5.3 11.6 6.9 29.6.9 9.5 1.9 17.6 2.4 18.1 2.2 2.2 7.7-17.9 6.6-23.7l-.6-3.1 1.6 2.7c3.5 6.1 4.8 14.9 4.9 31.5.1 9 .5 16.3.9 16.3 1 0 5.8-10.6 8.2-18 1-3 2.2-6 2.7-6.5.6-.6.8 7.8.7 22.5-.3 23.8.7 32.6 3.4 31.7 1.8-.6 6.7-17.3 7.4-25 .3-3.7 1-6.4 1.4-6 1 1 2.9 14.3 2.8 19.3-.1 1.9 0 9.7.1 17.2.2 10.8.5 13.8 1.6 13.8 2.5 0 8.3-6.1 10.8-11.3l2.4-5.2.8 3.9c.5 2.8-.1 8.1-2 17.9-1.6 7.6-2.5 14.2-2.1 14.5.8.8 6.9-5.9 11.8-12.8l3.2-4.5.3 5c.2 2.7-.2 10.5-.8 17.3-.7 6.8-.9 12.6-.6 13 .4.3 2.3-1 4.4-3 2-2 4.7-4.1 5.9-4.7 3.3-1.7 7.8-1.3 9.7.8 1.6 1.8 1.6 2.3-1.8 9.3-4.2 8.8-12 21.1-17.1 26.7-4.4 4.8-35.7 28.1-37.8 28.1-.3 0-.7-1.3-1-2.9-.4-1.6-2-6.6-3.7-11-2.6-6.8-4-8.8-9.5-13.9-13.8-12.9-32.6-28.1-39.6-32-8.1-4.5-9.9-5.9-15.1-12.4-7.1-8.6-13.4-21.5-15.7-32.1-.6-2.3-1.4-11.9-2-21.4-.9-14.6-1.6-18.9-4.6-29.1-7.7-27-21.6-66.5-29-82.7-5.4-12-4.6-12.4 5.4-2.9 7.2 6.8 14.2 16.7 21.9 31.1 2.4 4.6 4.8 8.3 5.3 8.3 2.8 0-1.2-21.6-7.5-40.6-2.5-7.5-4.6-14-4.6-14.6 0-1.5 3.2.8 7.7 5.4zm176 345.3c12.6 2.3 22.7 5.2 28.4 8l4.9 2.5v5.8c0 7.5-2.3 11.9-8.3 15.9-5.8 3.9-11.1 5.5-19 5.6-5.4.2-6.1-.1-8.1-2.6-2.3-2.8-9.6-5.4-11.7-4.2-1.2.8-1.1-2.2.6-14 .8-5.5 1.5-12.2 1.5-14.9 0-3.9.3-4.7 1.5-4.2.8.3 5.4 1.3 10.2 2.1zM626 466c0 .5-1.2 3.4-2.7 6.4-2.7 5.5-2.7 5.5-8.2 6.2-3.1.3-6.5.8-7.6 1.1-1.1.2-4.2.6-6.9 1l-4.8.6 2.3 1.8c1.3 1.1 5.2 3.2 8.7 4.8 3.4 1.7 6.2 3.3 6.2 3.6 0 1.5-3.2 6.5-4.2 6.5-.6 0-6.6-2.9-13.4-6.6l-12.4-6.5 3-5.9c3.3-6.5 3-6.4 15-8 14.8-2 14.6-1.6 4.5-6.7-4.9-2.5-9.2-4.7-9.4-4.9-.2-.1.6-1.9 1.8-3.8l2.2-3.5 12.9 6.5c7.2 3.5 13 6.8 13 7.4zm-541.9 3.2c.9.7 4.8 6.8 8.7 13.5 7.5 12.6 8.2 15.4 4.6 18.4-1.8 1.4-.8 2.7-8.8-11.1-3.8-6.3-6.9-11.6-7-11.8-.6-.5-3.6 1-3.6 1.9 0 .4 2.5 5 5.5 10.2 7.1 12.2 7.2 14.5.5 18.6-4.5 2.7-8.1 2.7-10.7-.2C70 505 59 485.5 59 483.4c0-2.1 2.5-6.2 3.3-5.4.3.3 3 4.8 6.2 10 8.4 14.1 8.4 14 10 13.4 2.3-.9 2-1.8-4-11.9-7.2-12.3-7.2-14.5.1-19 4.4-2.7 7.3-3.1 9.5-1.3zm229.7 5.1c3 3 3.6 2.1-11.6 19.1-6.1 6.9-11.2 12.8-11.2 13 0 .3 6.2.2 13.8-.1 16.5-.7 26.5.7 30.2 4.2 1.4 1.3 3.4 2.5 4.5 2.7 1.7.3 2 1.1 1.9 5 0 2.7-.8 5.7-1.9 7.4l-1.9 2.9-1.3-3.3c-1.2-2.8-1.7-3.2-5.3-3.2-2.2 0-6 .5-8.5 1.2-3.8 1-5.2 1-9-.4-4-1.5-5-1.6-9.3-.3-6.7 2.1-8.2 1.9-17.8-2-4.8-1.9-9.1-3.2-9.6-2.9-.5.3.7 2.3 2.7 4.5 1.9 2.1 3.5 4.7 3.5 5.7s-1.6 3.3-3.5 5.2c-2.1 2.1-3.7 4.7-4.1 6.9-.4 2-2.1 6.3-3.9 9.6-1.8 3.3-3.6 8.2-4 10.9-.5 3.9-1.6 5.8-5.2 9.7-3.9 4.1-4.7 5.7-5.1 9.8-.2 2.6.1 7.2.7 10.1.6 2.9.9 5.6.5 5.9-1.1 1-11-10.6-14.2-16.7-6.2-11.8-5.3-18.2 4.1-28.9 6.4-7.2 10.6-13.7 9.6-14.8-.4-.3-5.7 2.2-12 5.5-8.5 4.5-13.1 7.7-18 12.6-3.7 3.7-7.2 6.4-7.8 6-2.1-1.4-6.4.8-9.2 4.7l-2.9 4-2.1-4.8c-1.2-2.7-2.4-7.6-2.7-11-.4-5.8-.3-6.4 2.6-9.7 3.9-4.3 14.3-10.1 19.9-11 4.4-.6 21.3-10.8 21.3-12.8 0-.5-2.1-1-4.7-1-2.7 0-7.5-.8-10.8-1.7-9.1-2.4-12.7-2.2-17 1.1-4.3 3.3-5.9 2.3-5.1-3.1.7-5.2 3.5-8.2 10.7-11.9 10.4-5.2 14.3-4.5 24.7 4.4 6.4 5.4 11 6.3 19.8 3.7 16.4-4.8 27.4-15.2 36.4-34.4 2.4-5.3 2.4-5.3 6.4-4.8 2.3.3 4.9 1.6 6.4 3zm82.6 19.4c-.2 7.6-1.4 10.7-6.8 17.2-2.9 3.4-3.6 5.1-3.6 8.5 0 4.9 2 8.1 5.6 9 2 .5 4.7-.3 11.1-3.5 7.9-4 8.6-4.1 12.3-3 2.1.6 5.3 2.3 7 3.7 5.1 4.3 8.3 12.6 4.3 10.9-5.6-2.4-10.5-3.7-12.5-3.2-1.3.4-4.8 2.7-7.8 5.3-5.9 5-5.2 4.9-18.2 2.8-3.3-.5-4.2-.2-7.1 2.7-4.5 4.6-7.8 13.7-8 22-.1 5.8.3 7.2 3.1 11.6 3.6 5.7 3.8 6.9 1.6 10.1-1.5 2.3-1.5 4.6.1 8.5.7 1.6.1 1.5-4.6-.8-12-6-14.3-9.6-11.4-17.6.9-2.4 2.3-8.2 3.1-12.9 2.3-13.1 2.4-12.5-1.5-12.3-2.9.1-4.8 1.5-11.9 8.6-8.5 8.5-8.5 8.6-9 14.4-.5 7-1.1 7.9-6.1 8.7-4 .6-6.4 2.6-7.9 6.6-.9 2.3-1 2.3-3.6-2.3-3.6-6-4.4-11.8-2.3-15.1.9-1.4 4.4-3.9 7.8-5.8 4.6-2.4 7.4-4.8 10.6-9.1 2.4-3.3 4.3-6.3 4.3-6.8s-1.1-1.5-2.5-2.1c-3.3-1.5-9 .2-14 4.2-3 2.4-4.7 3-8.7 3-3.5 0-6 .7-8.9 2.6l-4.2 2.6.7-3.9c1.1-5.9 5.3-13.8 8.9-16.6 6.6-5 10.3-6 24.2-6.2 15-.2 16.7-.8 23.6-8.2 8.1-8.6 11.7-16.7 14.2-31.8l1.3-8 7.5-.6c4.1-.3 7.9-.4 8.4-.4.6.1.9 3.2.9 7.2zm197 .9c6.7 4.2 12.3 7.8 12.5 8 .6.5-4 7.4-4.9 7.4-.8 0-22.6-13.5-24.4-15.1-.8-.7 2.9-7.9 4.1-7.9.4 0 6.1 3.4 12.7 7.6zm-9.3 18.7l5.7 15.2-4 4.8c-2.6 3.1-4.6 4.6-5.7 4.3-3.6-1-8.1-1.7-8.1-1.3 0 .2.7 2.1 1.5 4.2 1.9 4.5 1.5 6.2-3 10.5l-3.5 3.4-14.8-2.8c-19.9-3.9-18.8-3.3-14.6-8.2l3.4-4.2 11.1 2.4c6.2 1.3 11.4 2.2 11.7 1.9.3-.3-.3-2.6-1.4-5.2-1.8-4.5-2.2-4.8-7.3-5.9-2.9-.7-5.5-1.5-5.8-1.8-1.1-1 5.2-7.5 7.4-7.5 1.2-.1 6.2.8 11 1.9 4.8 1.2 9.3 1.9 9.9 1.8.9-.2.1-3.3-2.6-10.3-2.2-5.5-4-10.5-4-11.2 0-1.6 6.1-8.5 6.9-7.8.3.3 3.1 7.4 6.2 15.8zm-478.4-9.6l2.4 3.1L99 514l-9 7.2 3 4.1c1.7 2.3 4.4 5.8 5.9 7.7l2.9 3.4 7.9-6.4c4.3-3.5 8.3-6.8 9-7.3 1.3-.9 6.2 3.7 6.3 5.9 0 1.4-20 16.4-22.1 16.4-.9 0-2.5-.8-3.7-1.8-3.3-2.9-18.2-22.3-18.2-23.7 0-.8 1-2.5 2.3-3.9 3.4-3.9 18.1-15.6 19.1-15.3.5.2 2 1.7 3.3 3.4zm21.3 27.8c0 .8.6 1.2 1.3.9 1.4-.5 22.7 20.5 22.7 22.5 0 .6-.5 1.1-1.1 1.1-.6 0-.8.7-.5 1.6.4 1-.6 2.8-2.8 5-3.8 3.8-7.8 4.4-10.8 1.7-1.7-1.5-1.8-1.3-1.8 5.5 0 4-.2 7.2-.5 7.2s-2.4-1.6-4.5-3.7l-4-3.6v-8.1c0-4.5-.3-9.8-.7-11.9l-.6-3.9-5.8 5.8-5.9 5.8-3.2-3.1-3.2-3.2 10-10.5c5.4-5.7 10.2-10.5 10.7-10.5.4-.1.7.6.7 1.4zm34 30.3l3.4 2.9-1.2 11.3c-.6 6.3-1 11.5-.8 11.7.2.3 4.9-1.9 10.5-4.6 5.5-2.8 10.4-5.1 10.9-5.1.4 0 1.7.8 2.8 1.8 1 1 2.7 2.1 3.7 2.5 2.6 1 2.1 2.6-1 3.3-1.6.4-3.5 1.2-4.3 1.9-.8.7-6.4 3.6-12.4 6.4l-10.9 5.1-3.2-2c-7-4.3-6.9-3.9-4.9-21.9 1.1-10.2 2.1-16.1 2.9-16.1.6 0 2.6 1.3 4.5 2.8zm350.4 7.7c.9 1.3 1.6 2.6 1.6 2.9 0 .3-2.5 2-5.5 3.8-3 1.8-5.5 3.6-5.5 4.1 0 .4 2.7 4.8 6 9.7l6 8.9-3.3 2.6c-1.9 1.4-3.7 2.5-4 2.5-.4 0-3.4-4.3-6.8-9.5l-6.1-9.5-5.8 4-5.9 4-2.2-3.1c-1.8-2.6-2-3.3-.8-3.9.8-.5 7.5-4.9 14.9-9.8 7.4-5 14-9.1 14.6-9.1.7-.1 1.9 1 2.8 2.4zM200.8 587l3.4 2.1-2.5 4.2c-1.3 2.3-4.5 8.1-7.1 12.9-2.6 4.9-5.2 8.8-5.7 8.8-1.8 0-6.9-3-6.9-4.1 0-1.9 13.4-25.9 14.5-25.9.6 0 2.5.9 4.3 2zm277.4 4.7c2.3 2.8 4 7.8 3.6 10.9-.2 2.4-1.4 3.5-7.3 6.6-7.2 3.9-10.6 4.5-14.9 2.8-1.4-.5-2.6-.7-2.6-.5 0 .3 1.6 3.8 3.6 7.7 3.5 6.9 3.5 7.2 1.8 8.5-2 1.5-6.3 2.8-6.8 2.2-1.4-1.5-12.5-26.4-11.9-26.6.4-.2 6.7-3.2 13.8-6.7 13.6-6.7 18.2-7.8 20.7-4.9zm-264.5 3c1.5.6 2.1 3.2 2.9 13.3.4 4.7 1 9.1 1.3 9.7.4.9 3.5-1 9.4-5.8 7.7-6.2 9.2-7 11.7-6.4 1.7.4 3 1.1 3 1.6 0 .6.4.8.8.5.4-.2 1.4 0 2.2.5 1.2.8 1 1.4-1.5 3.5-2.6 2.2-19.6 15.4-22.9 17.8-.8.5-3.3-.1-6.7-1.8l-5.5-2.6-1.3-13.7c-.6-7.6-1.5-15.3-1.8-17.1l-.5-3.3 3.8 1.6c2.2.9 4.4 1.9 5.1 2.2zM439.4 621c11.5 11.4 11.8 12 9.5 12.8-5.8 2.2-8.5 2.3-10.3.4-1.7-1.9-1.8-1.9-9.3.4-5.2 1.6-7.9 2-8.4 1.3-.3-.6-.9.7-1.3 2.9-.5 3.7-1 4.1-5.3 5.6-2.5.9-4.9 1.4-5.2 1.1-.4-.5 3.8-22.7 5.7-30 .7-2.5 1.7-3.2 6.3-4.7 3-.9 5.6-1.7 5.9-1.7.3-.1 5.9 5.3 12.4 11.9zm-170.9-6.9c14.9 3.7 16.5 4.4 16.5 6.3-.1 5-.9 5.1-14.9 1.6-7.3-1.8-13.3-3.1-13.5-2.9-.5.7-3.7 14.1-3.4 14.4.2.2 5.9 1.8 12.8 3.5s12.8 3.4 13.2 3.8c.3.4.4 1.9.1 3.5-.6 3.2-2.4 3.4-9.8 1.1-2.7-.8-5.9-1.7-7-1.9-1.1-.2-6.2-1.4-11.2-2.7-7.3-1.7-9.2-2.6-8.8-3.8.2-.8 1.8-7.2 3.6-14.3 2.2-8.7 3.6-12.7 4.5-12.7.8 0 8.9 1.9 17.9 4.1zm128.9 5.8c1.1 1.3 2.3 5.7 3.3 12.6 2.1 14.4 2.5 14-18.3 17.2-8.6 1.3-15.8 2.2-15.9 2.1-.7-.8-4.5-28.2-4-28.7.7-.7 25.4-4.8 30.1-5 1.9-.1 3.8.6 4.8 1.8zm-44.5 16.5c4.5 8 8.1 14.9 8.1 15.5 0 .6-2.1 1.1-5 1.1-4.2 0-5.2-.4-6.6-2.5-1.5-2.3-2.2-2.5-10-2.5H331l1.7-3.5c1.3-2.7 2.3-3.5 4.5-3.6 6.2-.3 6.6-.9 3.8-5.4l-2.3-3.7-3.8 6.9c-2.1 3.7-4.6 8.5-5.5 10.5-1.7 3.7-1.8 3.8-7.1 3.8-2.9 0-5.3-.3-5.3-.7 0-.8 13.9-27.4 15.2-29.1.6-.7 3.4-1.2 6.8-1.2h5.8l8.1 14.4zm-83.4-9.8c9.2 2.3 10.5 2.9 10.5 4.8 0 4.8-1.1 5-10.8 2.6-5.6-1.3-9.3-2.8-9.6-3.7-.5-1.1-1-1.3-2-.4-1.5 1.3-2.7.5-1.9-1.4.2-.8 1.2-1.1 2.1-.9 1.5.5 1.5.4 0-.9-1.7-1.3-1.5-2.7.4-2.7.5 0 5.6 1.2 11.3 2.6z"/><path d="M162.6 415.7c-3.1 3.2-7 8.5-8.7 11.8-3.7 7.5-6.2 16.6-4.9 17.9.5.5 3.2.4 6.7-.3 6.3-1.2 9.4-3.1 5.1-3.1-3.6 0-5.8-2.5-5.8-6.5 0-2.4.7-3.9 2.2-4.9 3.2-2.3 5.5-2 8.4 1 2 1.9 2.4 3.1 2 5.2-.6 2.6-.6 2.6.9.8 2.1-2.7 1.9-9.2-.5-16.2l-2.1-5.9 2.6-2c2.8-2.3 3.2-3.5 1.2-3.5-.8 0-3.9 2.6-7.1 5.7zM607.7 472.7c-1.4.4-1.5.8-.7 1.8 1.2 1.5 5.3.8 4.7-.8-.4-1.3-1.6-1.6-4-1zM613.5 474c-.3.5-.1 1 .4 1 .6 0 1.1-.5 1.1-1 0-.6-.2-1-.4-1-.3 0-.8.4-1.1 1zM126.7 542.8c-1.6 1.7-1.3 2.2 5.1 8.5 6.5 6.5 6.9 6.7 8.5 4.9 1.6-1.7 1.3-2.2-5.1-8.5-6.5-6.5-6.9-6.7-8.5-4.9zM462.8 602.1c-7.9 3.9-8.4 4.4-6.9 6.7.6 1 2.5.5 8.6-2.3 4.4-2 8.1-3.7 8.3-4 .6-.6-.8-4.5-1.6-4.4-.4 0-4.2 1.8-8.4 4zM422.7 623.7c-.3 2.1-.8 5.4-1.1 7.3-.4 2.5-.4 2.8.2 1 .5-1.7 2.1-3 5-4l4.2-1.6-3.3-3.2c-1.8-1.8-3.6-3.2-3.9-3.2-.3 0-.8 1.7-1.1 3.7zM439 628c0 .5.5 1 1.1 1 .5 0 .7-.5.4-1-.3-.6-.8-1-1.1-1-.2 0-.4.4-.4 1zM378.2 627.3c-6.2 1-6.4 1.1-5.8 3.7.3 1.5.8 5 1.2 7.9.7 5.8.1 5.6 11.4 3.7 4.1-.6 7.5-1.6 7.5-2.1 0-.6-.4-4-.9-7.8l-.8-6.7-3.1.1c-1.8.1-6.1.6-9.5 1.2z"/></svg>